<svg xmlns="http://www.w3.org/2000/svg" version="1.1" xmlns:xlink="http://www.w3.org/1999/xlink" xmlns:svgjs="http://svgjs.dev/svgjs" width="2000" height="313" viewBox="0 0 2000 313"><g transform="matrix(1,0,0,1,-1.2121212121212466,-0.09408624100225893)"><svg viewBox="0 0 396 62" data-background-color="#ffffff" preserveAspectRatio="xMidYMid meet" height="313" width="2000" xmlns="http://www.w3.org/2000/svg" xmlns:xlink="http://www.w3.org/1999/xlink"><g id="tight-bounds" transform="matrix(1,0,0,1,0.2400000000000091,0.018636891188947402)"><svg viewBox="0 0 395.52 61.96272621762212" height="61.96272621762212" width="395.52"><g><svg viewBox="0 0 459.35859749846287 71.96377177515204" height="61.96272621762212" width="395.52"><g><rect width="4.189657550018971" height="71.96377177515204" x="48.68125002692831" y="0" fill="#ffffff" opacity="1" stroke-width="0" stroke="transparent" fill-opacity="1" class="rect-o-0" data-fill-palette-color="primary" rx="1%" id="o-0" data-palette-color="#ea3c12"></rect></g><g transform="matrix(1,0,0,1,63.83859749846292,0.1790143576496277)"><svg viewBox="0 0 395.52 71.60574305985278" height="71.60574305985278" width="395.52"><g id="textblocktransform"><svg viewBox="0 0 395.52 71.60574305985278" height="71.60574305985278" width="395.52" id="textblock"><g><svg viewBox="0 0 395.52 46.458301231449326" height="46.458301231449326" width="395.52"><g transform="matrix(1,0,0,1,0,0)"><svg width="395.52" viewBox="3.799999952316284 -36.849998474121094 316.6700134277344 37.19999694824219" height="46.458301231449326" data-palette-color="#ea3c12"><path d="M21.35 0L5.3 0Q4.75 0 4.28-0.33 3.8-0.65 3.8-1.3L3.8-1.3 3.8-35.35Q3.8-36 4.3-36.27 4.8-36.55 5.45-36.55L5.45-36.55Q6.05-36.55 6.58-36.27 7.1-36 7.1-35.35L7.1-35.35 7.1-3.05 21.35-3.05Q21.95-3.05 22.2-2.58 22.45-2.1 22.45-1.55L22.45-1.55Q22.45-0.95 22.2-0.48 21.95 0 21.35 0L21.35 0ZM28.55 0L28.55 0Q27.9 0 27.4-0.33 26.9-0.65 26.9-1.3L26.9-1.3 26.9-35.35Q26.9-35.95 27.4-36.25 27.9-36.55 28.55-36.55L28.55-36.55Q29.15-36.55 29.67-36.25 30.2-35.95 30.2-35.35L30.2-35.35 30.2-1.3Q30.2-0.65 29.67-0.33 29.15 0 28.55 0ZM39.45 0L39.45 0Q38.8 0 38.3-0.3 37.8-0.6 37.8-1.25L37.8-1.25 37.8-35.3Q37.8-35.9 38.27-36.23 38.75-36.55 39.3-36.55L39.3-36.55 57-36.55Q57.65-36.55 57.95-36.08 58.25-35.6 58.25-35.1L58.25-35.1Q58.25-34.45 57.92-33.98 57.6-33.5 57-33.5L57-33.5 41.1-33.5 41.1-19.75 49-19.75Q49.55-19.75 49.87-19.3 50.2-18.85 50.2-18.25L50.2-18.25Q50.2-17.8 49.92-17.35 49.65-16.9 49-16.9L49-16.9 41.1-16.9 41.1-1.25Q41.1-0.6 40.57-0.3 40.05 0 39.45 0ZM81.89 0L64.09 0Q63.54 0 63.07-0.33 62.59-0.65 62.59-1.3L62.59-1.3 62.59-35.3Q62.59-35.9 63.07-36.23 63.54-36.55 64.09-36.55L64.09-36.55 81.89-36.55Q82.54-36.55 82.84-36.08 83.14-35.6 83.14-35.1L83.14-35.1Q83.14-34.45 82.82-33.98 82.49-33.5 81.89-33.5L81.89-33.5 65.89-33.5 65.89-19.75 73.74-19.75Q74.34-19.75 74.67-19.3 74.99-18.85 74.99-18.25L74.99-18.25Q74.99-17.8 74.69-17.35 74.39-16.9 73.74-16.9L73.74-16.9 65.89-16.9 65.89-3.05 81.89-3.05Q82.49-3.05 82.82-2.6 83.14-2.15 83.14-1.5L83.14-1.5Q83.14-0.95 82.84-0.48 82.54 0 81.89 0L81.89 0ZM97.29 0.3L97.29 0.3Q94.39 0.3 92.04-0.75 89.69-1.8 88.32-4.15 86.94-6.5 86.94-10.4L86.94-10.4 86.94-25.9Q86.94-29.75 88.32-32.1 89.69-34.45 92.02-35.5 94.34-36.55 97.29-36.55L97.29-36.55Q100.24-36.55 102.59-35.5 104.94-34.45 106.34-32.1 107.74-29.75 107.74-25.9L107.74-25.9 107.74-10.4Q107.74-6.5 106.34-4.15 104.94-1.8 102.59-0.75 100.24 0.3 97.29 0.3ZM97.29-2.75L97.29-2.75Q100.64-2.75 102.54-4.6 104.44-6.45 104.44-10.4L104.44-10.4 104.44-25.9Q104.44-29.8 102.54-31.65 100.64-33.5 97.29-33.5L97.29-33.5Q93.94-33.5 92.09-31.65 90.24-29.8 90.24-25.9L90.24-25.9 90.24-10.4Q90.24-6.45 92.09-4.6 93.94-2.75 97.29-2.75ZM116.59 0L116.59 0Q115.94 0 115.44-0.3 114.94-0.6 114.94-1.25L114.94-1.25 114.94-35.3Q114.94-35.9 115.41-36.23 115.89-36.55 116.44-36.55L116.44-36.55 134.14-36.55Q134.79-36.55 135.09-36.08 135.39-35.6 135.39-35.1L135.39-35.1Q135.39-34.45 135.06-33.98 134.74-33.5 134.14-33.5L134.14-33.5 118.24-33.5 118.24-19.75 126.14-19.75Q126.69-19.75 127.01-19.3 127.34-18.85 127.34-18.25L127.34-18.25Q127.34-17.8 127.06-17.35 126.79-16.9 126.14-16.9L126.14-16.9 118.24-16.9 118.24-1.25Q118.24-0.6 117.71-0.3 117.19 0 116.59 0ZM147.59 0.35L147.59 0.35Q144.39 0.35 142.09-0.63 139.79-1.6 138.56-2.88 137.34-4.15 137.34-5.05L137.34-5.05Q137.34-5.45 137.56-5.9 137.79-6.35 138.14-6.63 138.49-6.9 138.84-6.9L138.84-6.9Q139.34-6.9 139.86-6.28 140.39-5.65 141.26-4.83 142.14-4 143.59-3.38 145.04-2.75 147.39-2.75L147.39-2.75Q149.74-2.75 151.41-3.53 153.09-4.3 153.96-5.83 154.84-7.35 154.84-9.65L154.84-9.65Q154.84-12.05 153.94-13.53 153.04-15 151.56-15.93 150.09-16.85 148.34-17.53 146.59-18.2 144.81-18.88 143.04-19.55 141.56-20.58 140.09-21.6 139.16-23.28 138.24-24.95 138.24-27.55L138.24-27.55Q138.24-30.3 139.24-32.05 140.24-33.8 141.81-34.8 143.39-35.8 145.24-36.23 147.09-36.65 148.84-36.65L148.84-36.65Q150.24-36.65 151.71-36.43 153.19-36.2 154.44-35.8 155.69-35.4 156.46-34.85 157.24-34.3 157.24-33.6L157.24-33.6Q157.24-33.25 157.06-32.83 156.89-32.4 156.59-32.08 156.29-31.75 155.79-31.75L155.79-31.75Q155.34-31.75 154.54-32.23 153.74-32.7 152.36-33.18 150.99-33.65 148.79-33.65L148.79-33.65Q146.99-33.65 145.31-33.13 143.64-32.6 142.59-31.35 141.54-30.1 141.54-27.85L141.54-27.85Q141.54-25.85 142.46-24.63 143.39-23.4 144.86-22.65 146.34-21.9 148.09-21.28 149.84-20.65 151.61-19.88 153.39-19.1 154.86-17.93 156.34-16.75 157.24-14.85 158.14-12.95 158.14-9.95L158.14-9.95Q158.14-6.4 156.79-4.13 155.44-1.85 153.06-0.75 150.69 0.35 147.59 0.35ZM174.28 0.3L174.28 0.3Q171.33 0.3 168.98-0.75 166.63-1.8 165.23-4.15 163.83-6.5 163.83-10.4L163.83-10.4 163.83-35.35Q163.83-35.95 164.33-36.25 164.83-36.55 165.48-36.55L165.48-36.55Q166.13-36.55 166.63-36.25 167.13-35.95 167.13-35.35L167.13-35.35 167.13-10.4Q167.13-6.45 169.03-4.6 170.93-2.75 174.28-2.75L174.28-2.75Q177.68-2.75 179.58-4.6 181.48-6.45 181.48-10.4L181.48-10.4 181.48-35.35Q181.48-35.95 181.98-36.25 182.48-36.55 183.13-36.55L183.13-36.55Q183.78-36.55 184.28-36.25 184.78-35.95 184.78-35.35L184.78-35.35 184.78-10.4Q184.78-6.5 183.41-4.15 182.03-1.8 179.63-0.75 177.23 0.3 174.28 0.3ZM200.43 0.35L200.43 0.35Q197.23 0.35 194.93-0.63 192.63-1.6 191.41-2.88 190.18-4.15 190.18-5.05L190.18-5.05Q190.18-5.45 190.41-5.9 190.63-6.35 190.98-6.63 191.33-6.9 191.68-6.9L191.68-6.9Q192.18-6.9 192.71-6.28 193.23-5.65 194.11-4.83 194.98-4 196.43-3.38 197.88-2.75 200.23-2.75L200.23-2.75Q202.58-2.75 204.26-3.53 205.93-4.3 206.81-5.83 207.68-7.35 207.68-9.65L207.68-9.65Q207.68-12.05 206.78-13.53 205.88-15 204.41-15.93 202.93-16.85 201.18-17.53 199.43-18.2 197.66-18.88 195.88-19.55 194.41-20.58 192.93-21.6 192.01-23.28 191.08-24.95 191.08-27.55L191.08-27.55Q191.08-30.3 192.08-32.05 193.08-33.8 194.66-34.8 196.23-35.8 198.08-36.23 199.93-36.65 201.68-36.65L201.68-36.65Q203.08-36.65 204.56-36.43 206.03-36.2 207.28-35.8 208.53-35.4 209.31-34.85 210.08-34.3 210.08-33.6L210.08-33.6Q210.08-33.25 209.91-32.83 209.73-32.4 209.43-32.08 209.13-31.75 208.63-31.75L208.63-31.75Q208.18-31.75 207.38-32.23 206.58-32.7 205.21-33.18 203.83-33.65 201.63-33.65L201.63-33.65Q199.83-33.65 198.16-33.13 196.48-32.6 195.43-31.35 194.38-30.1 194.38-27.85L194.38-27.85Q194.38-25.85 195.31-24.63 196.23-23.4 197.71-22.65 199.18-21.9 200.93-21.28 202.68-20.65 204.46-19.88 206.23-19.1 207.71-17.93 209.18-16.75 210.08-14.85 210.98-12.95 210.98-9.95L210.98-9.95Q210.98-6.4 209.63-4.13 208.28-1.85 205.91-0.75 203.53 0.35 200.43 0.35ZM218.53 0L218.53 0Q217.88 0 217.38-0.33 216.88-0.65 216.88-1.3L216.88-1.3 216.88-35.35Q216.88-35.95 217.38-36.25 217.88-36.55 218.53-36.55L218.53-36.55Q219.13-36.55 219.65-36.25 220.18-35.95 220.18-35.35L220.18-35.35 220.18-20.4 234.63-20.4 234.63-35.35Q234.63-35.95 235.13-36.25 235.63-36.55 236.28-36.55L236.28-36.55Q236.88-36.55 237.4-36.25 237.93-35.95 237.93-35.35L237.93-35.35 237.93-1.3Q237.93-0.65 237.4-0.33 236.88 0 236.28 0L236.28 0Q235.63 0 235.13-0.33 234.63-0.65 234.63-1.3L234.63-1.3 234.63-17.55 220.18-17.55 220.18-1.3Q220.18-0.65 219.65-0.33 219.13 0 218.53 0ZM244.63 0L244.63 0Q244.23 0 243.78-0.18 243.33-0.35 243.03-0.68 242.73-1 242.73-1.4L242.73-1.4Q242.73-1.6 242.78-1.75L242.78-1.75 253.23-35.7Q253.43-36.3 253.98-36.58 254.53-36.85 255.18-36.85L255.18-36.85Q255.88-36.85 256.45-36.55 257.03-36.25 257.18-35.7L257.18-35.7 267.58-1.75Q267.63-1.6 267.63-1.45L267.63-1.45Q267.63-1.05 267.33-0.73 267.03-0.4 266.58-0.2 266.13 0 265.63 0L265.63 0Q265.23 0 264.88-0.2 264.53-0.4 264.43-0.85L264.43-0.85 262.08-8.55 248.28-8.55 245.98-0.85Q245.83-0.4 245.48-0.2 245.13 0 244.63 0ZM255.18-31.55L249.08-11.4 261.23-11.4 255.18-31.55ZM274.07 0L274.07 0Q273.42 0 272.92-0.33 272.42-0.65 272.42-1.3L272.42-1.3 272.42-35.3Q272.42-36 272.92-36.27 273.42-36.55 274.07-36.55L274.07-36.55Q274.67-36.55 275.12-36.23 275.57-35.9 275.97-35.4 276.37-34.9 276.67-34.25L276.67-34.25 290.17-7.65 290.17-35.35Q290.17-36 290.67-36.27 291.17-36.55 291.82-36.55L291.82-36.55Q292.42-36.55 292.95-36.27 293.47-36 293.47-35.35L293.47-35.35 293.47-1.3Q293.47-0.65 292.95-0.33 292.42 0 291.82 0L291.82 0Q291.12 0 290.57-0.6 290.02-1.2 289.62-1.9L289.62-1.9 275.72-28.95 275.72-1.3Q275.72-0.65 275.2-0.33 274.67 0 274.07 0ZM309.22 0L309.22 0Q308.57 0 308.07-0.33 307.57-0.65 307.57-1.3L307.57-1.3 307.57-33.45 299.17-33.45Q298.57-33.45 298.25-33.93 297.92-34.4 297.92-35L297.92-35Q297.92-35.6 298.25-36.08 298.57-36.55 299.17-36.55L299.17-36.55 319.22-36.55Q319.87-36.55 320.17-36.1 320.47-35.65 320.47-35.05L320.47-35.05Q320.47-34.45 320.17-33.95 319.87-33.45 319.22-33.45L319.22-33.45 310.87-33.45 310.87-1.3Q310.87-0.65 310.35-0.33 309.82 0 309.22 0Z" opacity="1" transform="matrix(1,0,0,1,0,0)" fill="#ffffff" class="wordmark-text-0" data-fill-palette-color="primary" id="text-0"></path></svg></g></svg></g><g transform="matrix(1,0,0,1,0,57.425991152964954)"><svg viewBox="0 0 232.20979199999996 14.179751906887832" height="14.179751906887832" width="232.20979199999996"><g transform="matrix(1,0,0,1,0,0)"><svg width="232.20979199999996" viewBox="2.082594871520996 -36.75 777.7974243164062 47.5" height="14.179751906887832" data-palette-color="#ea3c12"><path d="M19.25-33L23.25-33 23.25-11.3Q23.25-5.75 20.28-2.63 17.3 0.5 12.05 0.5L12.05 0.5Q8.35 0.5 5.95-0.9 3.55-2.3 2.63-4.88 1.7-7.45 2.35-10.9L2.35-10.9 6.05-11.65Q5.5-7.4 6.83-5.33 8.15-3.25 11.9-3.25L11.9-3.25Q16.15-3.25 17.7-5.58 19.25-7.9 19.25-12.3L19.25-12.3 19.25-33ZM43.3-25.5L43.3-25.5Q46.85-25.5 49.57-23.95 52.3-22.4 53.85-19.48 55.4-16.55 55.4-12.5L55.4-12.5Q55.4-8.45 53.85-5.53 52.3-2.6 49.57-1.05 46.85 0.5 43.3 0.5L43.3 0.5Q39.8 0.5 37.05-1.05 34.3-2.6 32.75-5.53 31.2-8.45 31.2-12.5L31.2-12.5Q31.2-16.55 32.75-19.48 34.3-22.4 37.05-23.95 39.8-25.5 43.3-25.5ZM43.3-22.05L43.3-22.05Q40.75-22.05 38.95-20.9 37.15-19.75 36.17-17.63 35.2-15.5 35.2-12.5L35.2-12.5Q35.2-9.55 36.17-7.4 37.15-5.25 38.95-4.1 40.75-2.95 43.3-2.95L43.3-2.95Q45.85-2.95 47.65-4.1 49.45-5.25 50.42-7.4 51.4-9.55 51.4-12.5L51.4-12.5Q51.4-15.5 50.42-17.63 49.45-19.75 47.65-20.9 45.85-22.05 43.3-22.05ZM72 0.5L72 0.5Q69.59 0.5 67.47-0.4 65.34-1.3 64.02-3.33 62.7-5.35 62.7-8.6L62.7-8.6 62.7-25 66.7-25 66.7-9.65Q66.7-5.85 68.34-4.42 70-3 73-3L73-3Q74.4-3 75.75-3.48 77.09-3.95 78.17-4.98 79.25-6 79.87-7.6 80.5-9.2 80.5-11.4L80.5-11.4 80.5-25 84.5-25 84.5 0 81 0 80.75-3.8Q79.45-1.55 77.22-0.53 75 0.5 72 0.5ZM97.79 0L93.79 0 93.79-25 97.04-25 97.59-20.9Q98.64-23.2 100.67-24.35 102.69-25.5 105.59-25.5L105.59-25.5Q106.24-25.5 107.02-25.4 107.79-25.3 108.34-25L108.34-25 107.64-21.35Q107.09-21.55 106.44-21.65 105.79-21.75 104.59-21.75L104.59-21.75Q103.04-21.75 101.47-20.85 99.89-19.95 98.84-18.13 97.79-16.3 97.79-13.5L97.79-13.5 97.79 0ZM118.19 0L114.19 0 114.19-25 117.69-25 118.04-19.4 117.39-19.95Q118.19-21.95 119.54-23.18 120.89-24.4 122.67-24.95 124.44-25.5 126.34-25.5L126.34-25.5Q129.04-25.5 131.24-24.48 133.44-23.45 134.77-21.35 136.09-19.25 136.09-16L136.09-16 136.09 0 132.09 0 132.09-14.6Q132.09-18.75 130.32-20.38 128.54-22 125.94-22L125.94-22Q124.14-22 122.34-21.15 120.54-20.3 119.37-18.4 118.19-16.5 118.19-13.3L118.19-13.3 118.19 0ZM155.59 0.5L155.59 0.5Q152.04 0.5 149.26-1.05 146.49-2.6 144.94-5.53 143.39-8.45 143.39-12.5L143.39-12.5Q143.39-16.55 144.94-19.48 146.49-22.4 149.19-23.95 151.89-25.5 155.34-25.5L155.34-25.5Q158.84-25.5 161.31-24 163.79-22.5 165.09-19.93 166.39-17.35 166.39-14.15L166.39-14.15Q166.39-13.3 166.34-12.6 166.29-11.9 166.19-11.35L166.19-11.35 145.99-11.35 145.99-14.9 164.44-14.9 162.39-14.5Q162.39-18.1 160.41-20.05 158.44-22 155.24-22L155.24-22Q152.79-22 151.01-20.88 149.24-19.75 148.26-17.63 147.29-15.5 147.29-12.5L147.29-12.5Q147.29-9.55 148.29-7.4 149.29-5.25 151.11-4.13 152.94-3 155.49-3L155.49-3Q158.24-3 159.96-4.05 161.69-5.1 162.74-6.9L162.74-6.9 165.89-5.05Q164.94-3.35 163.46-2.1 161.99-0.85 160.01-0.18 158.04 0.5 155.59 0.5ZM190.24-25L194.54-25 182.78 4.2Q181.84 6.65 180.71 8.08 179.59 9.5 178.21 10.13 176.84 10.75 175.03 10.75L175.03 10.75Q173.34 10.75 171.91 10.28 170.49 9.8 169.39 9L169.39 9 170.49 5.5Q171.49 6.4 172.61 6.83 173.74 7.25 174.84 7.25L174.84 7.25Q176.14 7.25 177.28 6.45 178.44 5.65 179.39 3.2L179.39 3.2 180.69-0.05 178.19-6 170.24-25 174.78-25 181.03-8.7 182.59-4.25 184.39-9.2 190.24-25ZM218.73-31L222.73-32.1 222.73-6.9Q222.73-5.05 223.78-4.15 224.83-3.25 226.48-3.25L226.48-3.25Q227.93-3.25 228.98-3.75 230.03-4.25 230.88-5.1L230.88-5.1 232.28-1.75Q231.13-0.7 229.56-0.1 227.98 0.5 225.93 0.5L225.93 0.5Q224.03 0.5 222.38-0.18 220.73-0.85 219.76-2.33 218.78-3.8 218.73-6.2L218.73-6.2 218.73-31ZM213.73-25L231.83-25 231.83-21.55 213.73-21.55 213.73-25ZM241.78 0L237.78 0 237.78-36.5 241.78-36.5 241.78-21.25Q243.08-23.5 245.23-24.5 247.38-25.5 249.93-25.5L249.93-25.5Q252.63-25.5 254.83-24.48 257.03-23.45 258.35-21.35 259.68-19.25 259.68-16L259.68-16 259.68 0 255.68 0 255.68-14.6Q255.68-18.75 253.9-20.38 252.13-22 249.53-22L249.53-22Q247.73-22 245.93-21.15 244.13-20.3 242.95-18.38 241.78-16.45 241.78-13.25L241.78-13.25 241.78 0ZM272.73 0L268.73 0 268.73-25 271.98-25 272.53-20.9Q273.58-23.2 275.6-24.35 277.63-25.5 280.53-25.5L280.53-25.5Q281.18-25.5 281.95-25.4 282.73-25.3 283.28-25L283.28-25 282.58-21.35Q282.03-21.55 281.38-21.65 280.73-21.75 279.53-21.75L279.53-21.75Q277.98-21.75 276.4-20.85 274.83-19.95 273.78-18.13 272.73-16.3 272.73-13.5L272.73-13.5 272.73 0ZM299.47-25.5L299.47-25.5Q303.02-25.5 305.75-23.95 308.47-22.4 310.02-19.48 311.57-16.55 311.57-12.5L311.57-12.5Q311.57-8.45 310.02-5.53 308.47-2.6 305.75-1.05 303.02 0.5 299.47 0.5L299.47 0.5Q295.97 0.5 293.22-1.05 290.47-2.6 288.92-5.53 287.37-8.45 287.37-12.5L287.37-12.5Q287.37-16.55 288.92-19.48 290.47-22.4 293.22-23.95 295.97-25.5 299.47-25.5ZM299.47-22.05L299.47-22.05Q296.92-22.05 295.12-20.9 293.32-19.75 292.35-17.63 291.37-15.5 291.37-12.5L291.37-12.5Q291.37-9.55 292.35-7.4 293.32-5.25 295.12-4.1 296.92-2.95 299.47-2.95L299.47-2.95Q302.02-2.95 303.82-4.1 305.62-5.25 306.6-7.4 307.57-9.55 307.57-12.5L307.57-12.5Q307.57-15.5 306.6-17.63 305.62-19.75 303.82-20.9 302.02-22.05 299.47-22.05ZM328.17 0.5L328.17 0.5Q325.77 0.5 323.65-0.4 321.52-1.3 320.2-3.33 318.87-5.35 318.87-8.6L318.87-8.6 318.87-25 322.87-25 322.87-9.65Q322.87-5.85 324.52-4.42 326.17-3 329.17-3L329.17-3Q330.57-3 331.92-3.48 333.27-3.95 334.35-4.98 335.42-6 336.05-7.6 336.67-9.2 336.67-11.4L336.67-11.4 336.67-25 340.67-25 340.67 0 337.17 0 336.92-3.8Q335.62-1.55 333.4-0.53 331.17 0.5 328.17 0.5ZM371.02-29.6L371.02-29.6 371.92-26.05Q371.87-26.05 371.77-26.05 371.67-26.05 371.57-26.05L371.57-26.05Q369.12-26.05 367.79-25.08 366.47-24.1 366.47-21.95L366.47-21.95 364.02-23.2Q364.02-25.15 364.92-26.6 365.82-28.05 367.37-28.83 368.92-29.6 370.77-29.6L370.77-29.6Q370.82-29.6 370.89-29.6 370.97-29.6 371.02-29.6ZM356.12-3.2L363.42-3.2Q366.97-3.2 368.97-1.58 370.97 0.05 370.97 2.75L370.97 2.75Q370.97 5.2 369.34 7 367.72 8.8 364.99 9.78 362.27 10.75 358.87 10.75L358.87 10.75Q352.97 10.75 350.04 8.75 347.12 6.75 347.12 3.95L347.12 3.95Q347.12 1.95 348.44 0.38 349.77-1.2 352.92-1.4L352.92-1.4 352.57-0.65Q350.87-1.1 349.69-2.18 348.52-3.25 348.52-5.3L348.52-5.3Q348.52-7.35 350.04-8.83 351.57-10.3 354.57-10.65L354.57-10.65 357.22-9.3 356.72-9.3Q354.27-9.05 353.24-8.08 352.22-7.1 352.22-5.95L352.22-5.95Q352.22-4.55 353.24-3.88 354.27-3.2 356.12-3.2L356.12-3.2ZM358.82 7.4L358.82 7.4Q361.72 7.4 363.59 6.8 365.47 6.2 366.37 5.25 367.27 4.3 367.27 3.2L367.27 3.2Q367.27 1.85 366.19 1.05 365.12 0.25 362.32 0.25L362.32 0.25 354.62 0.25Q353.02 0.25 351.92 1.07 350.82 1.9 350.82 3.35L350.82 3.35Q350.82 5.2 352.94 6.3 355.07 7.4 358.82 7.4ZM358.47-25.5L358.47-25.5Q361.47-25.5 363.79-24.43 366.12-23.35 367.42-21.45 368.72-19.55 368.72-17.05L368.72-17.05Q368.72-14.6 367.42-12.68 366.12-10.75 363.79-9.68 361.47-8.6 358.47-8.6L358.47-8.6Q353.52-8.6 350.87-10.98 348.22-13.35 348.22-17.05L348.22-17.05Q348.22-19.55 349.54-21.45 350.87-23.35 353.17-24.43 355.47-25.5 358.47-25.5ZM358.47-22.25L358.47-22.25Q355.87-22.25 354.12-20.83 352.37-19.4 352.37-17.05L352.37-17.05Q352.37-14.75 354.12-13.3 355.87-11.85 358.47-11.85L358.47-11.85Q361.07-11.85 362.82-13.3 364.57-14.75 364.57-17.05L364.57-17.05Q364.57-19.4 362.82-20.83 361.07-22.25 358.47-22.25ZM380.57 0L376.57 0 376.57-36.5 380.57-36.5 380.57-21.25Q381.87-23.5 384.02-24.5 386.17-25.5 388.72-25.5L388.72-25.5Q391.42-25.5 393.62-24.48 395.82-23.45 397.14-21.35 398.47-19.25 398.47-16L398.47-16 398.47 0 394.47 0 394.47-14.6Q394.47-18.75 392.69-20.38 390.92-22 388.32-22L388.32-22Q386.52-22 384.72-21.15 382.92-20.3 381.74-18.38 380.57-16.45 380.57-13.25L380.57-13.25 380.57 0ZM429.31-33L429.31-3.75 448.21-3.75 448.21 0 425.31 0 425.31-33 429.31-33ZM456.46-29.8L456.46-29.8Q455.11-29.8 454.28-30.63 453.46-31.45 453.46-32.8L453.46-32.8Q453.46-34.15 454.28-34.98 455.11-35.8 456.46-35.8L456.46-35.8Q457.81-35.8 458.63-34.98 459.46-34.15 459.46-32.8L459.46-32.8Q459.46-31.45 458.63-30.63 457.81-29.8 456.46-29.8ZM454.46-25L458.46-25 458.46 0 454.46 0 454.46-25ZM477.91-36.75L477.91-36.75Q479.21-36.75 480.36-36.45 481.51-36.15 482.16-35.6L482.16-35.6 481.11-32.35Q480.51-32.75 479.81-32.93 479.11-33.1 478.26-33.1L478.26-33.1Q476.11-33.1 474.91-32.08 473.71-31.05 473.71-28.8L473.71-28.8 473.71-25 473.71-23.7 473.71 0 469.71 0 469.71-29.2Q469.71-30.85 470.21-32.25 470.71-33.65 471.73-34.65 472.76-35.65 474.31-36.2 475.86-36.75 477.91-36.75ZM464.71-25L482.06-25 482.06-21.55 464.71-21.55 464.71-25ZM497.85 0.5L497.85 0.5Q494.3 0.5 491.53-1.05 488.75-2.6 487.2-5.53 485.65-8.45 485.65-12.5L485.65-12.5Q485.65-16.55 487.2-19.48 488.75-22.4 491.45-23.95 494.15-25.5 497.6-25.5L497.6-25.5Q501.1-25.5 503.58-24 506.05-22.5 507.35-19.93 508.65-17.35 508.65-14.15L508.65-14.15Q508.65-13.3 508.6-12.6 508.55-11.9 508.45-11.35L508.45-11.35 488.25-11.35 488.25-14.9 506.7-14.9 504.65-14.5Q504.65-18.1 502.68-20.05 500.7-22 497.5-22L497.5-22Q495.05-22 493.28-20.88 491.5-19.75 490.53-17.63 489.55-15.5 489.55-12.5L489.55-12.5Q489.55-9.55 490.55-7.4 491.55-5.25 493.38-4.13 495.2-3 497.75-3L497.75-3Q500.5-3 502.23-4.05 503.95-5.1 505-6.9L505-6.9 508.15-5.05Q507.2-3.35 505.73-2.1 504.25-0.85 502.28-0.18 500.3 0.5 497.85 0.5ZM515.7-34.5L520.1-34.5 518.8-22.15 515.7-22.15 515.7-34.5ZM536.95 0.5L536.95 0.5Q533.3 0.5 530.22-1.05 527.15-2.6 525.5-5.45L525.5-5.45 528.9-7.9Q530-5.6 532.12-4.3 534.25-3 537.25-3L537.25-3Q539.9-3 541.4-4.03 542.9-5.05 542.9-6.7L542.9-6.7Q542.9-7.75 542.22-8.63 541.55-9.5 539.65-9.9L539.65-9.9 533.65-11.15Q530-11.9 528.42-13.65 526.85-15.4 526.85-18L526.85-18Q526.85-20.05 528.02-21.75 529.2-23.45 531.37-24.48 533.55-25.5 536.5-25.5L536.5-25.5Q540.2-25.5 542.75-24.05 545.3-22.6 546.55-19.95L546.55-19.95 543.2-17.75Q542.35-19.95 540.45-20.98 538.55-22 536.5-22L536.5-22Q534.7-22 533.42-21.5 532.15-21 531.47-20.13 530.8-19.25 530.8-18.15L530.8-18.15Q530.8-17.05 531.55-16.13 532.3-15.2 534.35-14.8L534.35-14.8 540.6-13.5Q544.1-12.8 545.5-11.2 546.9-9.6 546.9-7.3L546.9-7.3Q546.9-4.95 545.65-3.18 544.4-1.4 542.15-0.45 539.9 0.5 536.95 0.5ZM583.19 0L578.24 0 568.49-33 572.64-33 580.79-3.65 588.54-33 593.09-33 600.84-3.55 608.99-33 612.94-33 603.24 0 598.29 0 592.44-21.4 590.74-28.85 590.69-28.85 588.99-21.4 583.19 0ZM629.74-25.5L629.74-25.5Q633.29-25.5 636.01-23.95 638.74-22.4 640.29-19.48 641.84-16.55 641.84-12.5L641.84-12.5Q641.84-8.45 640.29-5.53 638.74-2.6 636.01-1.05 633.29 0.5 629.74 0.5L629.74 0.5Q626.24 0.5 623.49-1.05 620.74-2.6 619.19-5.53 617.64-8.45 617.64-12.5L617.64-12.5Q617.64-16.55 619.19-19.48 620.74-22.4 623.49-23.95 626.24-25.5 629.74-25.5ZM629.74-22.05L629.74-22.05Q627.19-22.05 625.39-20.9 623.59-19.75 622.61-17.63 621.64-15.5 621.64-12.5L621.64-12.5Q621.64-9.55 622.61-7.4 623.59-5.25 625.39-4.1 627.19-2.95 629.74-2.95L629.74-2.95Q632.29-2.95 634.09-4.1 635.89-5.25 636.86-7.4 637.84-9.55 637.84-12.5L637.84-12.5Q637.84-15.5 636.86-17.63 635.89-19.75 634.09-20.9 632.29-22.05 629.74-22.05ZM653.39 0L649.39 0 649.39-25 652.89-25 653.24-19.4 652.59-19.95Q653.39-21.95 654.74-23.18 656.09-24.4 657.86-24.95 659.64-25.5 661.54-25.5L661.54-25.5Q664.24-25.5 666.44-24.48 668.64-23.45 669.96-21.35 671.29-19.25 671.29-16L671.29-16 671.29 0 667.29 0 667.29-14.6Q667.29-18.75 665.51-20.38 663.74-22 661.14-22L661.14-22Q659.34-22 657.54-21.15 655.74-20.3 654.56-18.4 653.39-16.5 653.39-13.3L653.39-13.3 653.39 0ZM690.08 0.5L690.08 0.5Q686.98 0.5 684.38-1.05 681.78-2.6 680.23-5.53 678.68-8.45 678.68-12.5L678.68-12.5Q678.68-16.65 680.33-19.55 681.98-22.45 684.68-23.98 687.38-25.5 690.48-25.5L690.48-25.5Q693.58-25.5 695.86-23.9 698.13-22.3 698.88-19.65L698.88-19.65 698.38-19.3 698.38-36.5 702.38-36.5 702.38 0 698.88 0 698.53-6.05 699.08-6.35Q698.73-4.15 697.41-2.63 696.08-1.1 694.16-0.3 692.23 0.5 690.08 0.5ZM690.48-3L690.48-3Q692.88-3 694.66-4.2 696.43-5.4 697.41-7.63 698.38-9.85 698.38-12.85L698.38-12.85Q698.38-15.7 697.41-17.75 696.43-19.8 694.71-20.9 692.98-22 690.68-22L690.68-22Q686.88-22 684.78-19.4 682.68-16.8 682.68-12.5L682.68-12.5Q682.68-8.2 684.73-5.6 686.78-3 690.48-3ZM722.13 0.5L722.13 0.5Q718.58 0.5 715.81-1.05 713.03-2.6 711.48-5.53 709.93-8.45 709.93-12.5L709.93-12.5Q709.93-16.55 711.48-19.48 713.03-22.4 715.73-23.95 718.43-25.5 721.88-25.5L721.88-25.5Q725.38-25.5 727.86-24 730.33-22.5 731.63-19.93 732.93-17.35 732.93-14.15L732.93-14.15Q732.93-13.3 732.88-12.6 732.83-11.9 732.73-11.35L732.73-11.35 712.53-11.35 712.53-14.9 730.98-14.9 728.93-14.5Q728.93-18.1 726.96-20.05 724.98-22 721.78-22L721.78-22Q719.33-22 717.56-20.88 715.78-19.75 714.81-17.63 713.83-15.5 713.83-12.5L713.83-12.5Q713.83-9.55 714.83-7.4 715.83-5.25 717.66-4.13 719.48-3 722.03-3L722.03-3Q724.78-3 726.51-4.05 728.23-5.1 729.28-6.9L729.28-6.9 732.43-5.05Q731.48-3.35 730.01-2.1 728.53-0.85 726.56-0.18 724.58 0.5 722.13 0.5ZM744.53 0L740.53 0 740.53-25 743.78-25 744.33-20.9Q745.38-23.2 747.4-24.35 749.43-25.5 752.33-25.5L752.33-25.5Q752.98-25.5 753.75-25.4 754.53-25.3 755.08-25L755.08-25 754.38-21.35Q753.83-21.55 753.18-21.65 752.53-21.75 751.33-21.75L751.33-21.75Q749.78-21.75 748.2-20.85 746.63-19.95 745.58-18.13 744.53-16.3 744.53-13.5L744.53-13.5 744.53 0ZM769.93 0.5L769.93 0.5Q766.28 0.5 763.2-1.05 760.13-2.6 758.48-5.45L758.48-5.45 761.88-7.9Q762.98-5.6 765.1-4.3 767.23-3 770.23-3L770.23-3Q772.88-3 774.38-4.03 775.88-5.05 775.88-6.7L775.88-6.7Q775.88-7.75 775.2-8.63 774.53-9.5 772.63-9.9L772.63-9.9 766.63-11.15Q762.98-11.9 761.4-13.65 759.83-15.4 759.83-18L759.83-18Q759.83-20.05 761-21.75 762.18-23.45 764.35-24.48 766.53-25.5 769.48-25.5L769.48-25.5Q773.18-25.5 775.73-24.05 778.28-22.6 779.53-19.95L779.53-19.95 776.18-17.75Q775.33-19.95 773.43-20.98 771.53-22 769.48-22L769.48-22Q767.68-22 766.4-21.5 765.13-21 764.45-20.13 763.78-19.25 763.78-18.15L763.78-18.15Q763.78-17.05 764.53-16.13 765.28-15.2 767.33-14.8L767.33-14.8 773.58-13.5Q777.08-12.8 778.48-11.2 779.88-9.6 779.88-7.3L779.88-7.3Q779.88-4.95 778.63-3.18 777.38-1.4 775.13-0.45 772.88 0.5 769.93 0.5Z" opacity="1" transform="matrix(1,0,0,1,0,0)" fill="#ffffff" class="slogan-text-1" data-fill-palette-color="secondary" id="text-1"></path></svg></g></svg></g></svg></g></svg></g><g transform="matrix(1,0,0,1,0,0.1790143576496277)"><svg viewBox="0 0 37.713560105412675 71.60574305985278" height="71.60574305985278" width="37.713560105412675"><g><svg xmlns="http://www.w3.org/2000/svg" xmlns:xlink="http://www.w3.org/1999/xlink" version="1.1" x="0" y="0" viewBox="13.425690650939941 2.12548828125 25.14862060546875 47.7490234375" style="enable-background:new 0 0 52 52;" xml:space="preserve" height="71.60574305985278" width="37.713560105412675" class="icon-icon-0" data-fill-palette-color="accent" id="icon-0"><g fill="#ea3c12" data-fill-palette-color="accent"><g fill="#ea3c12" data-fill-palette-color="accent"><g fill="#ea3c12" data-fill-palette-color="accent"><path d="M20.5 49.875h-2c-0.827 0-1.5-0.673-1.5-1.5v-3c0-0.276 0.224-0.5 0.5-0.5h4c0.276 0 0.5 0.224 0.5 0.5v3C22 49.202 21.327 49.875 20.5 49.875zM18 45.875v2.5c0 0.275 0.225 0.5 0.5 0.5h2c0.275 0 0.5-0.225 0.5-0.5v-2.5H18z" fill="#ffffff" data-fill-palette-color="accent"></path></g><g fill="#ea3c12" data-fill-palette-color="accent"><path d="M33.5 49.875h-2c-0.827 0-1.5-0.673-1.5-1.5v-3c0-0.276 0.224-0.5 0.5-0.5h4c0.276 0 0.5 0.224 0.5 0.5v3C35 49.202 34.327 49.875 33.5 49.875zM31 45.875v2.5c0 0.275 0.225 0.5 0.5 0.5h2c0.275 0 0.5-0.225 0.5-0.5v-2.5H31z" fill="#ffffff" data-fill-palette-color="accent"></path></g></g><g fill="#ea3c12" data-fill-palette-color="accent"><path d="M33.949 17.826H18.049c-0.276 0-0.5-0.224-0.5-0.5V5.625c0-0.827 0.673-1.5 1.5-1.5h2.95c0.276 0 0.5 0.224 0.5 0.5v1.5h7v-1.5c0-0.276 0.224-0.5 0.5-0.5h2.95c0.827 0 1.5 0.673 1.5 1.5v11.701C34.449 17.602 34.226 17.826 33.949 17.826zM18.549 16.826h14.9V5.625c0-0.275-0.225-0.5-0.5-0.5h-2.45v1.5c0 0.276-0.224 0.5-0.5 0.5h-8c-0.276 0-0.5-0.224-0.5-0.5v-1.5h-2.45c-0.275 0-0.5 0.225-0.5 0.5V16.826z" fill="#ffffff" data-fill-palette-color="accent"></path></g><g fill="#ea3c12" data-fill-palette-color="accent"><path d="M29.999 7.125h-8c-0.276 0-0.5-0.224-0.5-0.5v-4c0-0.276 0.224-0.5 0.5-0.5h8c0.276 0 0.5 0.224 0.5 0.5v4C30.499 6.902 30.275 7.125 29.999 7.125zM22.499 6.125h7v-3h-7V6.125z" fill="#ffffff" data-fill-palette-color="accent"></path></g><g fill="#ea3c12" data-fill-palette-color="accent"><g fill="#ea3c12" data-fill-palette-color="accent"><path d="M13.926 45.875c-0.059 0-0.117-0.01-0.174-0.032-0.196-0.072-0.326-0.26-0.326-0.468V34.919c0-0.12 0.043-0.235 0.121-0.326L28.695 16.997c0.095-0.11 0.233-0.174 0.379-0.174h9c0.195 0 0.373 0.114 0.454 0.292 0.082 0.177 0.053 0.386-0.075 0.534L14.305 45.701C14.208 45.813 14.068 45.875 13.926 45.875zM14.426 35.105v8.922L36.984 17.823h-7.68L14.426 35.105z" fill="#ffffff" data-fill-palette-color="accent"></path></g><g fill="#ea3c12" data-fill-palette-color="accent"><path d="M13.926 35.419c-0.059 0-0.117-0.01-0.174-0.031-0.196-0.072-0.326-0.26-0.326-0.469V17.323c0-0.276 0.224-0.5 0.5-0.5h15.148c0.195 0 0.373 0.114 0.454 0.292 0.082 0.177 0.053 0.386-0.075 0.534L14.305 35.246C14.208 35.358 14.068 35.419 13.926 35.419zM14.426 17.823v15.749L27.984 17.823H14.426z" fill="#ffffff" data-fill-palette-color="accent"></path></g><g fill="#ea3c12" data-fill-palette-color="accent"><path d="M38.074 45.875H22.926c-0.195 0-0.373-0.114-0.454-0.292-0.082-0.177-0.053-0.386 0.075-0.535l15.148-17.596c0.137-0.158 0.359-0.216 0.553-0.143 0.196 0.072 0.326 0.26 0.326 0.469v17.597C38.574 45.651 38.351 45.875 38.074 45.875zM24.016 44.875h13.558V29.125L24.016 44.875z" fill="#ffffff" data-fill-palette-color="accent"></path></g><g fill="#ea3c12" data-fill-palette-color="accent"><path d="M22.926 45.875h-9c-0.195 0-0.373-0.114-0.454-0.292-0.082-0.177-0.053-0.386 0.075-0.535L37.695 16.997c0.137-0.158 0.359-0.216 0.553-0.143 0.196 0.072 0.326 0.26 0.326 0.469V27.778c0 0.12-0.043 0.235-0.121 0.326L23.305 45.701C23.21 45.811 23.071 45.875 22.926 45.875zM15.016 44.875h7.68l14.878-17.283v-8.922L15.016 44.875z" fill="#ffffff" data-fill-palette-color="accent"></path></g></g></g></svg></g></svg></g></svg></g><defs></defs></svg><rect width="395.52" height="61.96272621762212" fill="none" stroke="none" visibility="hidden"></rect></g></svg></g></svg>